<svg id="Layer_1" data-name="Layer 1" xmlns="http://www.w3.org/2000/svg" xmlns:xlink="http://www.w3.org/1999/xlink" viewBox="0 0 763 162"><defs><clipPath id="clip-path"><rect x="10" y="16" width="108.57" height="128.78" style="fill:none"/></clipPath></defs><title>collective_data_wordmark_logo_color</title><text transform="translate(139.69 101.39)" style="font-size:80px;font-family:Calibri, Calibri"><tspan style="fill:#181f67;letter-spacing:-0.0087890625em">C</tspan><tspan x="41.95" y="0" style="fill:#181f67">OLL</tspan><tspan x="162.19" y="0" style="fill:#181f67;letter-spacing:-0.01171875em">E</tspan><tspan x="200.31" y="0" style="fill:#181f67;letter-spacing:0.0048828125em">C</tspan><tspan x="243.36" y="0" style="fill:#181f67">TIVE</tspan><tspan x="386.95" y="0"> </tspan></text><g style="clip-path:url(#clip-path)"><polygon points="61.18 144 10 93.6 10 68.01 61.18 16.05 61.18 42.42 23.18 80.42 61.18 118.41 61.18 144 61.18 144" style="fill:gray"/></g><polygon points="67.39 42.42 105.38 80.42 86 100.58 86 78.09 67.39 96.7 67.33 120.02 67.39 144.78 118.57 93.6 118.57 67.23 67.33 16 67.39 42.42 67.39 42.42" style="fill:#181f67"/><polygon points="64.28 53.27 46.45 71.11 64.28 88.95 82.12 71.11 64.28 53.27 64.28 53.27" style="fill:#7ec63e"/><text transform="translate(703.33 72.45)" style="font-size:40px;fill:#7ec63e;font-family:Calibri-Bold, Calibri;font-weight:700">®</text><text transform="translate(528.69 101.12)" style="font-size:80px;fill:#7ec63e;font-family:Calibri-Bold, Calibri;font-weight:700"><tspan style="letter-spacing:-0.0234375em">D</tspan><tspan x="48.55" y="0" style="letter-spacing:-0.078125em">A</tspan><tspan x="90.78" y="0" style="letter-spacing:-0.07861328125em">T</tspan><tspan x="124.1" y="0">A</tspan></text></svg>